<svg width="328" height="118" viewBox="0 0 328 118" fill="none" xmlns="http://www.w3.org/2000/svg">
<path d="M12.408 74.816C12.152 74.88 11.864 74.912 11.544 74.912C11.224 74.912 10.904 74.912 10.584 74.912C8.408 74.912 6.328 74.528 4.344 73.76C2.36 72.992 1.048 71.52 0.408 69.344C0.216 68.768 0.12 68.128 0.12 67.424C0.12 65.696 0.664 64.128 1.752 62.72C2.008 62.464 2.264 62.304 2.52 62.24C2.712 62.112 2.808 62.24 2.808 62.624C3 65.76 4.088 68 6.072 69.344C8.12 70.752 10.52 71.456 13.272 71.456C15.896 71.456 18.584 70.912 21.336 69.824C24.152 68.736 26.648 67.264 28.824 65.408C31.64 62.912 34.232 60.032 36.6 56.768C39.032 53.504 41.336 50.208 43.512 46.88C44.28 45.6 45.08 44.32 45.912 43.04C46.744 41.76 47.576 40.512 48.408 39.296H24.504C24.376 39.296 24.312 39.232 24.312 39.104C24.312 38.784 24.536 38.4 24.984 37.952C25.496 37.44 25.912 37.184 26.232 37.184H49.752C52.568 33.024 55.48 28.96 58.488 24.992C61.496 20.96 64.536 17.28 67.608 13.952C71.384 9.984 75.32 6.816 79.416 4.44799C83.576 2.016 87.32 0.703997 90.648 0.511999C92.44 0.383997 94.04 0.479996 95.448 0.799995C96.92 1.056 98.104 1.568 99 2.336C99.832 2.976 100.44 3.776 100.824 4.736C101.208 5.696 101.4 6.688 101.4 7.712C101.4 7.968 101.368 8.224 101.304 8.48C101.304 8.736 101.272 9.024 101.208 9.344C101.016 10.368 100.632 11.2 100.056 11.84C99.8 12.096 99.544 12.224 99.288 12.224C98.84 12.224 98.808 11.936 99.192 11.36C99.768 10.592 100.056 9.664 100.056 8.576C100.056 8 99.96 7.488 99.768 7.04C99.32 5.824 98.456 4.928 97.176 4.352C95.96 3.712 94.52 3.392 92.856 3.392C89.272 3.392 85.496 4.672 81.528 7.232C78.648 9.088 75.704 11.584 72.696 14.72C69.752 17.792 66.776 21.248 63.768 25.088C60.824 28.928 57.88 32.96 54.936 37.184H69.048C69.624 36.032 70.2 34.88 70.776 33.728C71.416 32.576 72.056 31.424 72.696 30.272C75.064 25.984 77.496 21.888 79.992 17.984C82.552 14.016 84.824 10.432 86.808 7.232C87 6.912 87.192 6.752 87.384 6.752C87.64 6.752 87.8 6.88 87.864 7.136C87.928 7.392 87.864 7.616 87.672 7.808C84.728 12.288 82.136 17.024 79.896 22.016C77.72 27.008 75.736 32.064 73.944 37.184H78.648C78.776 37.184 78.84 37.248 78.84 37.376C78.84 37.632 78.584 38.016 78.072 38.528C77.624 39.04 77.208 39.296 76.824 39.296H73.176C72.6 40.96 71.896 43.2 71.064 46.016C70.296 48.768 69.592 51.648 68.952 54.656C68.376 57.664 68.088 60.416 68.088 62.912C68.088 65.216 68.44 67.008 69.144 68.288C69.912 69.568 71.096 70.208 72.696 70.208C72.888 70.208 73.08 70.208 73.272 70.208C73.464 70.208 73.656 70.176 73.848 70.112C74.936 69.92 76.024 69.312 77.112 68.288C78.264 67.264 79.384 66.048 80.472 64.64C82.008 62.656 83.416 60.544 84.696 58.304C85.976 56.064 86.936 54.336 87.576 53.12C87.896 52.608 88.152 52.352 88.344 52.352C88.6 52.352 88.728 52.576 88.728 53.024C88.728 53.28 88.632 53.6 88.44 53.984C87.544 55.584 86.392 57.6 84.984 60.032C83.64 62.4 82.136 64.608 80.472 66.656C79.256 68.064 77.976 69.28 76.632 70.304C75.288 71.328 73.88 71.968 72.408 72.224C72.024 72.288 71.64 72.32 71.256 72.32C70.936 72.384 70.584 72.416 70.2 72.416C68.344 72.416 66.712 71.872 65.304 70.784C63.896 69.76 62.936 68 62.424 65.504C62.296 64.8 62.2 64.064 62.136 63.296C62.072 62.528 62.04 61.792 62.04 61.088C62.04 57.376 62.68 53.632 63.96 49.856C65.304 46.08 66.68 42.56 68.088 39.296H53.304C52.28 40.704 51.288 42.176 50.328 43.712C49.368 45.184 48.376 46.656 47.352 48.128C45.496 50.816 43.256 53.664 40.632 56.672C38.072 59.616 35.256 62.432 32.184 65.12C29.112 67.744 25.88 69.952 22.488 71.744C19.16 73.536 15.8 74.56 12.408 74.816ZM88.5015 76.736C87.8615 76.736 86.8375 76.64 85.4295 76.448C84.0855 76.256 82.8375 75.84 81.6855 75.2C80.5335 74.56 79.9575 73.568 79.9575 72.224C79.9575 71.392 80.1495 70.752 80.5335 70.304C80.7895 69.984 81.0455 69.824 81.3015 69.824C81.5575 69.824 81.6215 69.984 81.4935 70.304C81.3015 71.264 81.6535 72.16 82.5495 72.992C83.4455 73.888 84.3415 74.464 85.2375 74.72C86.5175 75.04 87.6375 75.2 88.5975 75.2C91.4135 75.2 93.9415 74.4 96.1815 72.8C98.4855 71.2 100.534 69.344 102.326 67.232C99.8935 65.76 97.7495 64 95.8935 61.952C94.1015 59.84 93.2055 57.504 93.2055 54.944C93.2055 53.92 93.3335 52.992 93.5895 52.16C94.2295 49.984 95.6055 48.256 97.7175 46.976C98.3575 46.592 99.0295 46.336 99.7335 46.208C100.502 46.016 101.27 45.92 102.038 45.92C104.534 45.92 106.293 46.496 107.318 47.648V47.744C107.318 47.872 107.19 48.032 106.934 48.224C106.742 48.416 106.582 48.448 106.454 48.32C106.006 47.68 105.206 47.36 104.054 47.36C102.646 47.36 101.27 47.84 99.9255 48.8C98.6455 49.76 97.8135 50.944 97.4295 52.352C97.0455 53.568 96.8535 54.784 96.8535 56C96.8535 58.176 97.4615 60.096 98.6775 61.76C99.9575 63.36 101.494 64.768 103.286 65.984C103.798 65.344 104.246 64.704 104.63 64.064C105.078 63.424 105.526 62.784 105.974 62.144C107.894 59.2 109.782 55.84 111.638 52.064C113.494 48.288 115.414 44.416 117.398 40.448C119.382 36.416 121.462 32.512 123.638 28.736C125.878 24.96 128.31 21.6 130.934 18.656C133.558 15.648 136.438 13.344 139.574 11.744C141.622 10.656 143.574 10.112 145.43 10.112C146.454 10.112 147.382 10.24 148.214 10.496C148.47 10.56 148.534 10.72 148.406 10.976C148.342 11.232 148.182 11.328 147.926 11.264C147.67 11.136 147.382 11.072 147.062 11.072C146.806 11.072 146.518 11.072 146.198 11.072C142.87 11.072 139.382 13.216 135.734 17.504C132.918 20.832 130.486 24.384 128.438 28.16C126.39 31.872 124.502 35.712 122.774 39.68C121.046 43.584 119.254 47.456 117.398 51.296C115.606 55.136 113.462 58.816 110.966 62.336C110.326 63.296 109.622 64.224 108.854 65.12C108.15 66.016 107.414 66.88 106.646 67.712C107.542 68.096 108.47 68.416 109.43 68.672C110.454 68.928 111.382 69.152 112.214 69.344C115.094 69.92 118.038 70.208 121.046 70.208C125.206 70.208 129.238 69.728 133.142 68.768C137.11 67.872 140.598 66.624 143.606 65.024C147.702 62.848 151.35 59.84 154.55 56C157.75 52.16 160.278 47.904 162.134 43.232C164.054 38.56 165.014 33.92 165.014 29.312C165.014 24.704 163.926 20.384 161.75 16.352C159.574 12.256 155.958 8.928 150.902 6.368C147.766 4.768 144.278 3.616 140.438 2.912C136.662 2.144 132.854 1.75999 129.014 1.75999C123.574 1.75999 118.294 2.65599 113.174 4.44799C108.118 6.17599 103.99 8.544 100.79 11.552C99.1255 13.152 97.6215 15.296 96.2775 17.984C94.9975 20.672 94.3575 23.328 94.3575 25.952C94.3575 26.528 94.3895 27.104 94.4535 27.68C94.5175 28.256 94.6455 28.832 94.8375 29.408C95.4135 31.2 96.5015 32.576 98.1015 33.536C99.7655 34.432 101.654 34.88 103.766 34.88C105.366 34.88 107.03 34.592 108.758 34.016C108.822 34.016 108.854 34.016 108.854 34.016C108.918 33.952 108.982 33.92 109.046 33.92C109.174 33.92 109.238 33.984 109.238 34.112C109.238 34.432 109.046 34.656 108.661 34.784C107.766 35.04 106.806 35.264 105.781 35.456C104.822 35.648 103.862 35.744 102.902 35.744C100.854 35.744 98.8695 35.392 96.9495 34.688C95.0295 33.92 93.4615 32.736 92.2455 31.136C91.0935 29.536 90.5175 27.488 90.5175 24.992C90.5175 23.008 90.8055 21.152 91.3815 19.424C91.9575 17.696 92.7575 16.064 93.7815 14.528C95.8935 11.392 98.8695 8.8 102.71 6.752C106.614 4.64 110.902 3.072 115.574 2.048C120.31 0.959995 124.982 0.415995 129.59 0.415995C133.494 0.415995 137.398 0.799995 141.302 1.568C145.206 2.272 148.918 3.35999 152.438 4.832C158.838 7.584 163.446 11.296 166.262 15.968C169.142 20.576 170.582 25.504 170.582 30.752C170.582 35.616 169.494 40.48 167.318 45.344C165.206 50.144 162.23 54.528 158.39 58.496C154.614 62.4 150.198 65.504 145.142 67.808C142.006 69.216 138.582 70.272 134.87 70.976C131.222 71.68 127.51 72.032 123.734 72.032C121.558 72.032 119.414 71.904 117.302 71.648C115.19 71.456 113.11 71.136 111.062 70.688C110.23 70.496 109.334 70.24 108.374 69.92C107.414 69.664 106.454 69.312 105.494 68.864C104.342 69.888 103.126 70.88 101.846 71.84C100.63 72.864 99.3175 73.728 97.9095 74.432C96.4375 75.136 94.9015 75.68 93.3015 76.064C91.7655 76.512 90.1655 76.736 88.5015 76.736ZM164.506 76.736C163.802 76.736 162.778 76.64 161.434 76.448C160.09 76.256 158.874 75.84 157.786 75.2C156.634 74.56 156.058 73.536 156.058 72.128C156.058 71.36 156.25 70.752 156.634 70.304C156.89 69.984 157.146 69.824 157.402 69.824C157.658 69.824 157.754 69.984 157.69 70.304C157.434 71.264 157.786 72.16 158.746 72.992C159.642 73.888 160.538 74.464 161.434 74.72C162.458 74.976 163.546 75.104 164.698 75.104C167.195 75.104 169.499 74.464 171.611 73.184C173.787 71.904 175.707 70.304 177.371 68.384C175.003 66.72 172.891 64.64 171.035 62.144C169.243 59.648 168.347 56.832 168.347 53.696C168.347 52.736 168.443 51.776 168.635 50.816C169.339 47.36 171.099 44.672 173.915 42.752C175.387 41.728 177.051 41.216 178.907 41.216C180.123 41.216 181.211 41.44 182.171 41.888C183.195 42.272 183.899 42.752 184.283 43.328V43.424C184.283 43.68 184.155 43.936 183.899 44.192C183.643 44.384 183.451 44.416 183.323 44.288C182.875 43.456 182.011 43.04 180.731 43.04C180.027 43.04 179.259 43.2 178.427 43.52C177.595 43.776 176.827 44.256 176.123 44.96C175.291 45.664 174.619 46.56 174.107 47.648C173.595 48.672 173.179 49.76 172.859 50.912C172.475 52.256 172.283 53.568 172.283 54.848C172.283 57.408 172.891 59.712 174.107 61.76C175.323 63.808 176.827 65.568 178.619 67.04C180.923 64.16 183.067 60.896 185.051 57.248C187.099 53.6 188.955 50.048 190.619 46.592C192.347 43.072 193.883 40.128 195.227 37.76C200.219 28.992 205.019 22.208 209.627 17.408C214.299 12.544 218.619 10.112 222.587 10.112C223.419 10.112 224.219 10.208 224.987 10.4C225.243 10.464 225.307 10.624 225.179 10.88C225.051 11.136 224.859 11.232 224.603 11.168C224.347 11.104 224.091 11.072 223.835 11.072C223.643 11.008 223.419 10.976 223.163 10.976C221.243 10.976 219.163 11.936 216.923 13.856C214.683 15.712 212.379 18.304 210.011 21.632C207.643 24.896 205.275 28.672 202.907 32.96C203.739 32.448 204.699 32.096 205.787 31.904C206.939 31.648 208.123 31.52 209.339 31.52C211.195 31.52 213.051 31.712 214.906 32.096C216.827 32.48 218.427 32.928 219.707 33.44C222.587 31.2 224.891 28.416 226.619 25.088C228.411 21.76 229.307 18.56 229.307 15.488C229.307 12.416 228.507 9.952 226.907 8.096C225.307 6.24 223.291 4.832 220.859 3.872C218.427 2.912 215.867 2.272 213.179 1.952C210.491 1.632 208.027 1.472 205.787 1.472C202.203 1.472 198.619 1.856 195.035 2.62399C191.515 3.392 188.251 4.512 185.243 5.984C182.235 7.392 179.675 9.12 177.562 11.168C175.835 12.832 174.203 15.04 172.667 17.792C171.131 20.544 170.363 23.328 170.363 26.144C170.363 27.296 170.555 28.416 170.939 29.504C171.579 31.296 172.731 32.704 174.395 33.728C176.059 34.688 177.979 35.168 180.155 35.168C180.987 35.168 181.851 35.072 182.747 34.88C183.643 34.688 184.539 34.464 185.435 34.208H185.627C185.819 34.208 185.915 34.304 185.915 34.496C185.915 34.752 185.755 34.944 185.435 35.072C183.707 35.648 181.915 35.936 180.059 35.936C177.883 35.936 175.835 35.52 173.915 34.688C171.995 33.792 170.427 32.48 169.211 30.752C167.995 29.024 167.387 26.88 167.387 24.32C167.387 22.336 167.643 20.512 168.155 18.848C168.731 17.184 169.499 15.616 170.459 14.144C172.571 11.008 175.547 8.416 179.387 6.368C183.227 4.32 187.483 2.784 192.155 1.75999C196.827 0.735996 201.467 0.223997 206.075 0.223997C208.251 0.223997 210.747 0.383997 213.562 0.703997C216.443 1.024 219.291 1.632 222.107 2.528C224.923 3.36 227.387 4.576 229.499 6.17599C231.675 7.776 233.179 9.824 234.011 12.32C234.395 13.536 234.587 14.848 234.587 16.256C234.587 18.816 233.947 21.408 232.667 24.032C231.387 26.592 229.787 28.832 227.867 30.752C226.395 32.352 224.603 33.76 222.491 34.976C225.499 36.448 227.739 38.464 229.211 41.024C230.683 43.52 231.419 46.208 231.419 49.088C231.419 52.096 230.651 55.104 229.115 58.112C227.579 61.12 225.307 63.84 222.299 66.272C219.355 68.704 215.675 70.56 211.259 71.84C209.211 72.416 207.003 72.864 204.635 73.184C202.331 73.504 199.963 73.664 197.531 73.664C195.035 73.664 192.539 73.472 190.043 73.088C187.547 72.704 185.147 72.096 182.843 71.264C182.459 71.136 182.043 70.976 181.595 70.784C181.147 70.592 180.731 70.368 180.347 70.112C176.891 73.184 173.147 75.2 169.115 76.16C167.579 76.544 166.042 76.736 164.506 76.736ZM206.843 38.624C208.891 38.624 210.843 38.304 212.699 37.664C214.619 36.96 216.411 36 218.075 34.784C216.859 34.016 215.483 33.504 213.947 33.248C212.411 32.928 210.651 32.768 208.667 32.768C206.811 32.768 205.339 33.152 204.251 33.92C203.163 34.688 202.619 35.488 202.619 36.32C202.619 36.96 202.939 37.504 203.579 37.952C204.283 38.4 205.371 38.624 206.843 38.624ZM210.779 70.016C214.043 68.608 216.763 66.752 218.939 64.448C221.179 62.08 222.875 59.488 224.027 56.672C225.179 53.856 225.755 51.104 225.755 48.416C225.755 45.984 225.275 43.712 224.315 41.6C223.419 39.488 222.011 37.728 220.091 36.32C218.107 37.28 215.931 38.08 213.562 38.72C211.259 39.36 208.891 39.68 206.459 39.68C204.667 39.68 203.323 39.456 202.427 39.008C201.531 38.496 200.923 37.984 200.603 37.472C199.771 39.072 198.971 40.736 198.203 42.464C197.435 44.192 196.635 45.92 195.803 47.648C194.139 51.104 192.123 54.752 189.755 58.592C187.451 62.432 184.731 65.856 181.595 68.864C181.979 69.12 182.363 69.312 182.747 69.44C183.131 69.632 183.515 69.792 183.899 69.92C186.011 70.688 188.251 71.264 190.619 71.648C192.987 72.032 195.355 72.224 197.723 72.224C200.219 72.224 202.587 72 204.827 71.552C207.131 71.168 209.115 70.656 210.779 70.016ZM231.791 67.424C231.407 67.872 231.023 68.096 230.639 68.096C230.383 68.096 230.223 68 230.159 67.808C230.095 67.552 230.159 67.296 230.351 67.04C231.439 65.824 232.751 64.16 234.287 62.048C235.823 59.936 237.359 57.6 238.895 55.04C240.431 52.48 241.775 49.856 242.927 47.168C244.079 44.416 244.783 41.792 245.039 39.296C243.567 38.464 242.575 37.024 242.062 34.976C241.999 34.656 241.935 34.368 241.871 34.112C241.871 33.792 241.871 33.504 241.871 33.248C241.871 32.096 242.095 31.136 242.543 30.368C243.055 29.536 243.631 29.12 244.271 29.12C245.167 29.12 245.903 29.984 246.479 31.712C246.607 32.16 246.703 32.672 246.767 33.248C246.831 33.76 246.863 34.272 246.863 34.784C246.863 35.36 246.831 35.904 246.767 36.416C246.767 36.864 246.735 37.248 246.671 37.568C247.119 37.696 247.695 37.792 248.399 37.856C249.167 37.92 249.999 37.952 250.895 37.952C252.239 37.952 253.647 37.92 255.119 37.856C256.591 37.728 257.839 37.664 258.863 37.664C260.079 37.664 260.911 37.92 261.359 38.432C261.807 38.944 262.031 39.584 262.031 40.352C262.031 41.312 261.775 42.368 261.263 43.52C260.815 44.608 260.367 45.536 259.919 46.304C259.087 47.84 258.287 49.216 257.519 50.432C256.815 51.584 256.015 52.832 255.119 54.176C253.775 56.224 252.783 58.112 252.143 59.84C251.567 61.504 251.279 62.912 251.279 64.064C251.279 66.048 252.015 67.04 253.487 67.04C254.703 67.04 256.271 66.176 258.191 64.448C259.407 63.36 260.527 62.08 261.551 60.608C262.639 59.072 263.599 57.536 264.431 56C265.327 54.4 266.063 53.088 266.639 52.064C266.767 51.872 266.895 51.776 267.023 51.776C267.279 51.776 267.407 52.032 267.407 52.544C267.407 52.928 267.311 53.28 267.119 53.6C266.031 55.584 264.783 57.76 263.375 60.128C261.967 62.496 260.239 64.544 258.191 66.272C257.103 67.168 256.015 67.808 254.927 68.192C253.903 68.64 252.943 68.864 252.047 68.864C250.447 68.864 249.103 68.32 248.015 67.232C246.991 66.08 246.479 64.576 246.479 62.72C246.479 61.632 246.735 60.32 247.247 58.784C248.079 56.48 249.327 54.272 250.991 52.16C252.655 50.048 254.255 47.904 255.791 45.728C256.751 44.448 257.231 43.2 257.231 41.984C257.231 41.344 257.039 40.8 256.655 40.352C256.335 39.904 255.727 39.648 254.831 39.584C254.319 39.456 253.743 39.392 253.103 39.392C252.463 39.392 251.823 39.392 251.183 39.392H248.495C248.111 39.392 247.759 39.392 247.439 39.392C247.119 39.392 246.831 39.36 246.575 39.296C246.255 41.728 245.487 44.352 244.271 47.168C243.119 49.92 241.743 52.64 240.143 55.328C238.607 58.016 237.071 60.416 235.535 62.528C234.063 64.64 232.815 66.272 231.791 67.424ZM286.49 68.672C284.442 68.672 283.034 68.032 282.266 66.752C281.498 65.408 281.114 63.936 281.114 62.336C281.114 62.016 281.146 61.472 281.21 60.704C281.338 59.872 281.466 59.104 281.594 58.4C280.698 59.616 279.61 60.96 278.33 62.432C277.114 63.904 275.866 65.152 274.586 66.176C272.538 67.84 270.682 68.672 269.018 68.672C267.418 68.672 266.17 68 265.273 66.656C264.442 65.312 264.026 63.616 264.026 61.568C264.026 58.944 264.602 56.288 265.754 53.6C266.906 50.912 268.41 48.384 270.266 46.016C272.186 43.584 274.298 41.504 276.602 39.776C277.946 38.816 279.578 38.048 281.498 37.472C283.482 36.832 285.466 36.512 287.45 36.512C289.69 36.512 291.642 36.864 293.306 37.568C295.034 38.208 296.218 39.136 296.858 40.352C295.514 42.08 294.138 44.224 292.73 46.784C291.322 49.28 290.106 51.552 289.082 53.6C288.378 55.008 287.61 56.768 286.778 58.88C285.946 60.928 285.53 62.688 285.53 64.16C285.53 64.8 285.69 65.44 286.01 66.08C286.33 66.72 286.938 67.04 287.834 67.04C288.858 67.04 289.85 66.656 290.81 65.888C291.77 65.12 292.57 64.352 293.21 63.584C294.682 61.984 296.026 60.224 297.242 58.304C298.458 56.384 299.674 54.336 300.89 52.16C301.082 51.904 301.274 51.776 301.466 51.776C301.722 51.776 301.85 51.968 301.85 52.352C301.85 52.672 301.786 52.928 301.658 53.12C300.57 55.232 299.354 57.344 298.01 59.456C296.666 61.568 295.066 63.552 293.21 65.408C292.314 66.304 291.258 67.072 290.042 67.712C288.826 68.352 287.642 68.672 286.49 68.672ZM271.13 65.696C272.346 65.696 273.658 65.056 275.066 63.776C276.538 62.432 277.946 60.832 279.29 58.976C280.698 57.056 281.946 55.232 283.034 53.504C284.186 51.712 285.082 50.336 285.722 49.376C287.066 47.264 288.314 45.504 289.466 44.096C290.618 42.688 292.41 41.6 294.842 40.832C294.97 40.832 295.066 40.832 295.13 40.832C295.258 40.768 295.386 40.736 295.514 40.736C294.938 39.84 293.978 39.168 292.634 38.72C291.29 38.272 289.978 38.048 288.698 38.048C286.714 38.048 284.794 38.592 282.938 39.68C281.082 40.768 279.386 42.144 277.85 43.808C276.378 45.536 274.938 47.424 273.53 49.472C272.122 51.52 270.97 53.6 270.074 55.712C269.242 57.824 268.826 59.84 268.826 61.76C268.826 62.784 268.986 63.712 269.306 64.544C269.69 65.312 270.298 65.696 271.13 65.696ZM286.97 30.272H286.778C286.33 30.272 286.106 30.048 286.106 29.6C286.106 29.344 286.234 29.152 286.49 29.024C287.706 28.192 289.114 27.104 290.714 25.76C292.378 24.352 293.882 23.136 295.226 22.112C295.546 21.92 295.77 21.824 295.898 21.824C296.346 21.824 296.762 22.048 297.146 22.496C297.53 22.88 297.722 23.296 297.722 23.744C297.722 24.064 297.562 24.32 297.242 24.512L286.97 30.272ZM302.946 68.768C301.602 68.768 300.354 68.512 299.202 68C298.114 67.424 297.218 66.464 296.514 65.12C296.002 63.968 295.746 62.72 295.746 61.376C295.746 59.968 296.002 58.656 296.514 57.44C297.026 56.352 297.602 55.392 298.242 54.56C298.882 53.728 299.586 53.248 300.354 53.12C300.93 51.84 301.794 50.144 302.946 48.032C304.162 45.92 305.506 43.808 306.978 41.696C308.514 39.584 309.954 37.888 311.298 36.608C311.618 36.288 312.162 35.776 312.93 35.072C313.762 34.304 314.69 33.568 315.714 32.864C316.802 32.16 317.794 31.744 318.69 31.616C318.882 31.552 319.138 31.52 319.458 31.52C320.226 31.52 320.802 31.712 321.186 32.096C321.57 32.48 321.762 32.928 321.762 33.44C321.762 33.952 321.57 34.464 321.186 34.976C320.802 35.488 320.194 35.904 319.362 36.224C319.042 36.288 318.562 36.384 317.922 36.512C317.346 36.64 316.482 36.704 315.33 36.704C314.882 37.344 314.658 38.24 314.658 39.392C314.658 40.672 314.85 42.112 315.234 43.712C315.682 45.312 316.098 46.88 316.482 48.416C316.93 49.888 317.154 51.136 317.154 52.16C317.282 54.528 316.898 56.928 316.002 59.36C315.17 61.728 313.826 63.744 311.97 65.408L310.626 66.368C310.818 66.432 311.01 66.496 311.202 66.56C311.394 66.56 311.586 66.56 311.778 66.56C312.866 66.56 314.082 66.24 315.426 65.6C316.77 64.896 317.954 64.032 318.978 63.008C320.514 61.536 321.826 59.968 322.914 58.304C324.066 56.64 325.122 54.912 326.082 53.12C326.146 52.864 326.306 52.736 326.562 52.736C326.882 52.736 327.042 52.992 327.042 53.504C327.042 53.76 326.946 54.048 326.754 54.368C325.794 56.16 324.61 58.048 323.202 60.032C321.858 61.952 320.45 63.584 318.978 64.928C317.826 65.952 316.578 66.72 315.234 67.232C313.954 67.68 312.866 67.904 311.97 67.904C311.33 67.904 310.818 67.84 310.434 67.712C310.05 67.584 309.698 67.392 309.378 67.136C308.482 67.584 307.458 67.968 306.306 68.288C305.218 68.608 304.098 68.768 302.946 68.768ZM306.594 66.272C307.874 65.376 308.866 64.224 309.57 62.816C310.338 61.408 310.914 59.904 311.298 58.304C311.81 56.384 312.098 54.4 312.162 52.352C312.29 50.304 312.354 48.448 312.354 46.784V43.424C312.354 42.08 312.514 40.704 312.834 39.296C313.218 37.888 313.602 37.024 313.986 36.704C313.026 37.088 311.97 37.952 310.818 39.296C309.666 40.576 308.514 42.112 307.362 43.904C306.21 45.632 305.154 47.328 304.194 48.992C303.298 50.656 302.594 52.032 302.082 53.12C303.298 53.056 304.13 53.408 304.578 54.176C305.026 54.88 305.154 55.392 304.962 55.712C304.45 55.584 304.098 55.52 303.906 55.52C302.946 55.52 302.05 55.872 301.218 56.576C300.386 57.216 299.682 58.176 299.106 59.456C298.53 60.672 298.242 61.856 298.242 63.008C298.242 64.544 298.69 65.664 299.586 66.368C300.482 67.072 301.538 67.424 302.754 67.424C304.162 67.424 305.442 67.04 306.594 66.272ZM115.887 94.6367V117.312H112.617V90.9805H115.605L115.887 94.6367ZM128.701 100.332V100.701C128.701 102.084 128.537 103.367 128.209 104.551C127.881 105.723 127.4 106.742 126.768 107.609C126.146 108.477 125.379 109.15 124.465 109.631C123.551 110.111 122.502 110.352 121.318 110.352C120.111 110.352 119.045 110.152 118.119 109.754C117.193 109.355 116.408 108.775 115.764 108.014C115.119 107.252 114.604 106.338 114.217 105.271C113.842 104.205 113.584 103.004 113.443 101.668V99.6992C113.584 98.293 113.848 97.0332 114.234 95.9199C114.621 94.8066 115.131 93.8574 115.764 93.0723C116.408 92.2754 117.188 91.6719 118.102 91.2617C119.016 90.8398 120.07 90.6289 121.266 90.6289C122.461 90.6289 123.521 90.8633 124.447 91.332C125.373 91.7891 126.152 92.4453 126.785 93.3008C127.418 94.1562 127.893 95.1816 128.209 96.377C128.537 97.5605 128.701 98.8789 128.701 100.332ZM125.432 100.701V100.332C125.432 99.3828 125.332 98.4922 125.133 97.6602C124.934 96.8164 124.623 96.0781 124.201 95.4453C123.791 94.8008 123.264 94.2969 122.619 93.9336C121.975 93.5586 121.207 93.3711 120.316 93.3711C119.496 93.3711 118.781 93.5117 118.172 93.793C117.574 94.0742 117.064 94.4551 116.643 94.9355C116.221 95.4043 115.875 95.9434 115.605 96.5527C115.348 97.1504 115.154 97.7715 115.025 98.416V102.969C115.26 103.789 115.588 104.562 116.01 105.289C116.432 106.004 116.994 106.584 117.697 107.029C118.4 107.463 119.285 107.68 120.352 107.68C121.23 107.68 121.986 107.498 122.619 107.135C123.264 106.76 123.791 106.25 124.201 105.605C124.623 104.961 124.934 104.223 125.133 103.391C125.332 102.547 125.432 101.65 125.432 100.701ZM136.102 93.9688V110H132.85V90.9805H136.014L136.102 93.9688ZM142.043 90.875L142.025 93.8984C141.756 93.8398 141.498 93.8047 141.252 93.793C141.018 93.7695 140.748 93.7578 140.443 93.7578C139.693 93.7578 139.031 93.875 138.457 94.1094C137.883 94.3438 137.396 94.6719 136.998 95.0938C136.6 95.5156 136.283 96.0195 136.049 96.6055C135.826 97.1797 135.68 97.8125 135.609 98.5039L134.695 99.0312C134.695 97.8828 134.807 96.8047 135.029 95.7969C135.264 94.7891 135.621 93.8984 136.102 93.125C136.582 92.3398 137.191 91.7305 137.93 91.2969C138.68 90.8516 139.57 90.6289 140.602 90.6289C140.836 90.6289 141.105 90.6582 141.41 90.7168C141.715 90.7637 141.926 90.8164 142.043 90.875ZM155.561 106.748V96.957C155.561 96.207 155.408 95.5566 155.104 95.0059C154.811 94.4434 154.365 94.0098 153.768 93.7051C153.17 93.4004 152.432 93.248 151.553 93.248C150.732 93.248 150.012 93.3887 149.391 93.6699C148.781 93.9512 148.301 94.3203 147.949 94.7773C147.609 95.2344 147.439 95.7266 147.439 96.2539H144.188C144.188 95.5742 144.363 94.9004 144.715 94.2324C145.066 93.5645 145.57 92.9609 146.227 92.4219C146.895 91.8711 147.691 91.4375 148.617 91.1211C149.555 90.793 150.598 90.6289 151.746 90.6289C153.129 90.6289 154.348 90.8633 155.402 91.332C156.469 91.8008 157.301 92.5098 157.898 93.459C158.508 94.3965 158.812 95.5742 158.812 96.9922V105.852C158.812 106.484 158.865 107.158 158.971 107.873C159.088 108.588 159.258 109.203 159.48 109.719V110H156.088C155.924 109.625 155.795 109.127 155.701 108.506C155.607 107.873 155.561 107.287 155.561 106.748ZM156.123 98.4688L156.158 100.754H152.871C151.945 100.754 151.119 100.83 150.393 100.982C149.666 101.123 149.057 101.34 148.564 101.633C148.072 101.926 147.697 102.295 147.439 102.74C147.182 103.174 147.053 103.684 147.053 104.27C147.053 104.867 147.188 105.412 147.457 105.904C147.727 106.396 148.131 106.789 148.67 107.082C149.221 107.363 149.895 107.504 150.691 107.504C151.688 107.504 152.566 107.293 153.328 106.871C154.09 106.449 154.693 105.934 155.139 105.324C155.596 104.715 155.842 104.123 155.877 103.549L157.266 105.113C157.184 105.605 156.961 106.15 156.598 106.748C156.234 107.346 155.748 107.92 155.139 108.471C154.541 109.01 153.826 109.461 152.994 109.824C152.174 110.176 151.248 110.352 150.217 110.352C148.928 110.352 147.797 110.1 146.824 109.596C145.863 109.092 145.113 108.418 144.574 107.574C144.047 106.719 143.783 105.764 143.783 104.709C143.783 103.689 143.982 102.793 144.381 102.02C144.779 101.234 145.354 100.584 146.104 100.068C146.854 99.541 147.756 99.1426 148.811 98.873C149.865 98.6035 151.043 98.4688 152.344 98.4688H156.123ZM178.096 107.328V110H164.262V107.328H178.096ZM177.586 93.2832L165 110H163.014V107.609L175.512 90.9805H177.586V93.2832ZM176.145 90.9805V93.6699H163.154V90.9805H176.145ZM189.398 110.352C188.074 110.352 186.873 110.129 185.795 109.684C184.729 109.227 183.809 108.588 183.035 107.768C182.273 106.947 181.688 105.975 181.277 104.85C180.867 103.725 180.662 102.494 180.662 101.158V100.42C180.662 98.873 180.891 97.4961 181.348 96.2891C181.805 95.0703 182.426 94.0391 183.211 93.1953C183.996 92.3516 184.887 91.7129 185.883 91.2793C186.879 90.8457 187.91 90.6289 188.977 90.6289C190.336 90.6289 191.508 90.8633 192.492 91.332C193.488 91.8008 194.303 92.457 194.936 93.3008C195.568 94.1328 196.037 95.1172 196.342 96.2539C196.646 97.3789 196.799 98.6094 196.799 99.9453V101.404H182.596V98.75H193.547V98.5039C193.5 97.6602 193.324 96.8398 193.02 96.043C192.727 95.2461 192.258 94.5898 191.613 94.0742C190.969 93.5586 190.09 93.3008 188.977 93.3008C188.238 93.3008 187.559 93.459 186.938 93.7754C186.316 94.0801 185.783 94.5371 185.338 95.1465C184.893 95.7559 184.547 96.5 184.301 97.3789C184.055 98.2578 183.932 99.2715 183.932 100.42V101.158C183.932 102.061 184.055 102.91 184.301 103.707C184.559 104.492 184.928 105.184 185.408 105.781C185.9 106.379 186.492 106.848 187.184 107.188C187.887 107.527 188.684 107.697 189.574 107.697C190.723 107.697 191.695 107.463 192.492 106.994C193.289 106.525 193.986 105.898 194.584 105.113L196.553 106.678C196.143 107.299 195.621 107.891 194.988 108.453C194.355 109.016 193.576 109.473 192.65 109.824C191.736 110.176 190.652 110.352 189.398 110.352ZM203.848 93.9688V110H200.596V90.9805H203.76L203.848 93.9688ZM209.789 90.875L209.771 93.8984C209.502 93.8398 209.244 93.8047 208.998 93.793C208.764 93.7695 208.494 93.7578 208.189 93.7578C207.439 93.7578 206.777 93.875 206.203 94.1094C205.629 94.3438 205.143 94.6719 204.744 95.0938C204.346 95.5156 204.029 96.0195 203.795 96.6055C203.572 97.1797 203.426 97.8125 203.355 98.5039L202.441 99.0312C202.441 97.8828 202.553 96.8047 202.775 95.7969C203.01 94.7891 203.367 93.8984 203.848 93.125C204.328 92.3398 204.938 91.7305 205.676 91.2969C206.426 90.8516 207.316 90.6289 208.348 90.6289C208.582 90.6289 208.852 90.6582 209.156 90.7168C209.461 90.7637 209.672 90.8164 209.789 90.875ZM220.336 110.352C219.012 110.352 217.811 110.129 216.732 109.684C215.666 109.227 214.746 108.588 213.973 107.768C213.211 106.947 212.625 105.975 212.215 104.85C211.805 103.725 211.6 102.494 211.6 101.158V100.42C211.6 98.873 211.828 97.4961 212.285 96.2891C212.742 95.0703 213.363 94.0391 214.148 93.1953C214.934 92.3516 215.824 91.7129 216.82 91.2793C217.816 90.8457 218.848 90.6289 219.914 90.6289C221.273 90.6289 222.445 90.8633 223.43 91.332C224.426 91.8008 225.24 92.457 225.873 93.3008C226.506 94.1328 226.975 95.1172 227.279 96.2539C227.584 97.3789 227.736 98.6094 227.736 99.9453V101.404H213.533V98.75H224.484V98.5039C224.438 97.6602 224.262 96.8398 223.957 96.043C223.664 95.2461 223.195 94.5898 222.551 94.0742C221.906 93.5586 221.027 93.3008 219.914 93.3008C219.176 93.3008 218.496 93.459 217.875 93.7754C217.254 94.0801 216.721 94.5371 216.275 95.1465C215.83 95.7559 215.484 96.5 215.238 97.3789C214.992 98.2578 214.869 99.2715 214.869 100.42V101.158C214.869 102.061 214.992 102.91 215.238 103.707C215.496 104.492 215.865 105.184 216.346 105.781C216.838 106.379 217.43 106.848 218.121 107.188C218.824 107.527 219.621 107.697 220.512 107.697C221.66 107.697 222.633 107.463 223.43 106.994C224.227 106.525 224.924 105.898 225.521 105.113L227.49 106.678C227.08 107.299 226.559 107.891 225.926 108.453C225.293 109.016 224.514 109.473 223.588 109.824C222.674 110.176 221.59 110.352 220.336 110.352ZM242.607 104.955C242.607 104.486 242.502 104.053 242.291 103.654C242.092 103.244 241.676 102.875 241.043 102.547C240.422 102.207 239.484 101.914 238.23 101.668C237.176 101.445 236.221 101.182 235.365 100.877C234.521 100.572 233.801 100.203 233.203 99.7695C232.617 99.3359 232.166 98.8262 231.85 98.2402C231.533 97.6543 231.375 96.9688 231.375 96.1836C231.375 95.4336 231.539 94.7246 231.867 94.0566C232.207 93.3887 232.682 92.7969 233.291 92.2812C233.912 91.7656 234.656 91.3613 235.523 91.0684C236.391 90.7754 237.357 90.6289 238.424 90.6289C239.947 90.6289 241.248 90.8984 242.326 91.4375C243.404 91.9766 244.23 92.6973 244.805 93.5996C245.379 94.4902 245.666 95.4805 245.666 96.5703H242.414C242.414 96.043 242.256 95.5332 241.939 95.041C241.635 94.5371 241.184 94.1211 240.586 93.793C240 93.4648 239.279 93.3008 238.424 93.3008C237.521 93.3008 236.789 93.4414 236.227 93.7227C235.676 93.9922 235.271 94.3379 235.014 94.7598C234.768 95.1816 234.645 95.627 234.645 96.0957C234.645 96.4473 234.703 96.7637 234.82 97.0449C234.949 97.3145 235.172 97.5664 235.488 97.8008C235.805 98.0234 236.25 98.2344 236.824 98.4336C237.398 98.6328 238.131 98.832 239.021 99.0312C240.58 99.3828 241.863 99.8047 242.871 100.297C243.879 100.789 244.629 101.393 245.121 102.107C245.613 102.822 245.859 103.689 245.859 104.709C245.859 105.541 245.684 106.303 245.332 106.994C244.992 107.686 244.494 108.283 243.838 108.787C243.193 109.279 242.42 109.666 241.518 109.947C240.627 110.217 239.625 110.352 238.512 110.352C236.836 110.352 235.418 110.053 234.258 109.455C233.098 108.857 232.219 108.084 231.621 107.135C231.023 106.186 230.725 105.184 230.725 104.129H233.994C234.041 105.02 234.299 105.729 234.768 106.256C235.236 106.771 235.811 107.141 236.49 107.363C237.17 107.574 237.844 107.68 238.512 107.68C239.402 107.68 240.146 107.562 240.744 107.328C241.354 107.094 241.816 106.771 242.133 106.361C242.449 105.951 242.607 105.482 242.607 104.955Z" fill="white"/>
</svg>
